<svg width="23" height="24" viewBox="0 0 23 24" fill="none" xmlns="http://www.w3.org/2000/svg">
<path fill-rule="evenodd" clip-rule="evenodd" d="M11.5002 1.73495C10.375 1.73495 9.41535 2.45788 9.05973 3.46983C8.90099 3.92154 8.40823 4.15829 7.95911 3.99864C7.50999 3.83898 7.27459 3.34337 7.43333 2.89166C8.02494 1.20821 9.62118 0 11.5002 0C13.3793 0 14.9755 1.20821 15.5671 2.89166C15.7258 3.34337 15.4905 3.83898 15.0413 3.99864C14.5922 4.15829 14.0995 3.92154 13.9407 3.46983C13.5851 2.45788 12.6255 1.73495 11.5002 1.73495Z" fill="#004293"/>
<path d="M13.8 13.0121H9.2C8.88244 13.0121 8.625 13.2711 8.625 13.5905V16.0905C8.625 16.327 8.76815 16.5396 8.98645 16.6275L9.7916 16.9514C10.8883 17.3926 12.1117 17.3926 13.2084 16.9514L14.0135 16.6275C14.2319 16.5396 14.375 16.327 14.375 16.0905V13.5905C14.375 13.2711 14.1176 13.0121 13.8 13.0121Z" fill="#004293"/>
<path d="M6.91238 16.3307L1.15674 14.594C1.19134 18.1964 1.40057 21.514 2.6656 22.6449C4.18132 24 6.62084 24 11.4999 24C16.3789 24 18.8184 24 20.3342 22.6449C21.5992 21.514 21.8084 18.1964 21.843 14.5941L16.0876 16.3306C16 17.1781 15.4528 17.917 14.6542 18.2383L13.849 18.5622C12.3411 19.1689 10.6589 19.1689 9.15095 18.5622L8.3458 18.2383C7.54722 17.9171 7.00007 17.1782 6.91238 16.3307Z" fill="#004293"/>
<path d="M6.45027 4.33738H16.5497C19.3674 4.33738 20.7762 4.33738 21.7274 5.11578C21.9102 5.26538 22.0773 5.43344 22.2261 5.61731C23 6.57396 23 7.99093 23 10.8249C23 11.544 23 11.9035 22.8266 12.184C22.7928 12.2386 22.7546 12.2903 22.7123 12.3386C22.495 12.5862 22.1526 12.6895 21.4677 12.8962L16.1 14.5158V13.5905C16.1 12.3129 15.0703 11.2772 13.8 11.2772H9.2C7.92975 11.2772 6.9 12.3129 6.9 13.5905V14.5158L1.53226 12.8962C0.847437 12.6895 0.505023 12.5862 0.287744 12.3386C0.245419 12.2903 0.20717 12.2386 0.173393 12.184C0 11.9035 0 11.544 0 10.8249C0 7.99093 0 6.57396 0.773929 5.61731C0.922678 5.43344 1.08977 5.26538 1.27258 5.11578C2.22375 4.33738 3.63259 4.33738 6.45027 4.33738Z" fill="#004293"/>
</svg>
