<svg width="22" height="24" viewBox="0 0 22 24" fill="none" xmlns="http://www.w3.org/2000/svg">
<path d="M6.25224 14.6497C6.11399 14.7371 5.97277 14.8257 5.83127 14.9107C6.09221 17.4875 8.30673 19.5 11 19.5C13.8688 19.5 16.1944 17.2167 16.1944 14.4L16.1944 14.3934C16.0317 14.422 15.8635 14.4477 15.7007 14.4724L15.6817 14.4753C15.484 14.5053 15.2889 14.535 15.0884 14.5704C14.2318 14.7219 13.5399 14.6607 12.9396 14.4432C12.3815 14.241 11.9607 13.9203 11.6503 13.6837L11.6214 13.6617C11.2848 13.4054 11.0647 13.2453 10.7922 13.1466C10.5445 13.0569 10.1898 12.9985 9.60305 13.1023C8.7429 13.2545 7.97362 13.6138 7.26293 14.0256C6.95875 14.2018 6.67673 14.3806 6.39847 14.5571L6.25224 14.6497Z" fill="#004293"/>
<path fill-rule="evenodd" clip-rule="evenodd" d="M0 9.6C0 5.07452 0 2.81178 1.43192 1.40589C2.86384 0 5.16849 0 9.77778 0H12.2222C16.8315 0 19.1362 0 20.5681 1.40589C22 2.81178 22 5.07452 22 9.6V14.4C22 18.9255 22 21.1882 20.5681 22.5941C19.1362 24 16.8315 24 12.2222 24H9.77778C5.16849 24 2.86384 24 1.43192 22.5941C0 21.1882 0 18.9255 0 14.4V9.6ZM18.0278 14.4C18.0278 14.1369 18.0128 13.8772 17.9836 13.6218L18.008 13.6053L17.897 13.0683C17.265 9.89477 14.4173 7.5 11 7.5C7.11866 7.5 3.97222 10.5892 3.97222 14.4C3.97222 18.2108 7.11866 21.3 11 21.3C14.8813 21.3 18.0278 18.2108 18.0278 14.4ZM6.11111 3.9C5.60485 3.9 5.19444 4.30294 5.19444 4.8C5.19444 5.29706 5.60485 5.7 6.11111 5.7H15.8889C16.3951 5.7 16.8056 5.29706 16.8056 4.8C16.8056 4.30294 16.3951 3.9 15.8889 3.9H6.11111Z" fill="#004293"/>
</svg>
