<svg width="24" height="24" fill="none" xmlns="http://www.w3.org/2000/svg"><path d="M5.112 23.266H4.8c-1.131 0-1.697 0-2.049-.352-.351-.351-.351-.917-.351-2.048V19.53c0-.622 0-.933.16-1.21.16-.279.4-.419.883-.7 3.174-1.846 7.683-2.885 10.692-1.09.202.12.384.266.54.44a1.79 1.79 0 01-.152 2.562c-.163.142-.336.25-.511.287a9 9 0 00.413-.056c1.093-.175 2.011-.76 2.852-1.394l2.168-1.638c.765-.578 1.9-.578 2.664 0 .689.52.9 1.375.464 2.073-.508.813-1.223 1.854-1.91 2.49-.687.637-1.71 1.205-2.546 1.608-.926.447-1.948.705-2.989.873a17.82 17.82 0 01-6.396-.14 18.04 18.04 0 00-3.62-.37zm5.521-21.63C11.242.546 11.546 0 12 0c.454 0 .758.545 1.367 1.636l.157.282c.173.31.259.465.394.567.134.103.302.14.638.216l.305.07c1.18.267 1.771.4 1.912.852.14.452-.262.922-1.067 1.863l-.209.244c-.228.267-.343.401-.394.567-.052.165-.034.343 0 .7l.032.325c.121 1.256.182 1.884-.185 2.163-.368.279-.92.025-2.026-.484l-.286-.132c-.314-.145-.472-.217-.638-.217-.166 0-.323.072-.638.217L11.076 9c-1.105.509-1.658.763-2.026.484-.367-.28-.306-.907-.185-2.163l.032-.325c.034-.357.052-.535 0-.7-.051-.166-.166-.3-.394-.567l-.209-.244c-.804-.94-1.207-1.411-1.066-1.863.14-.452.73-.585 1.911-.852l.305-.07c.336-.075.504-.113.638-.216.135-.102.221-.257.394-.567l.157-.282zm10.284 5.182c.304-.545.456-.818.683-.818.227 0 .38.273.683.818l.079.141c.086.155.13.233.197.284.067.05.151.07.319.108l.152.034c.59.134.886.2.956.426.07.226-.13.462-.533.932l-.104.122c-.115.134-.172.2-.198.283-.025.083-.017.172 0 .35l.016.163c.061.628.092.942-.092 1.082-.184.139-.46.012-1.013-.243l-.143-.066c-.157-.072-.236-.108-.319-.108-.083 0-.162.036-.319.108l-.143.066c-.553.255-.829.382-1.013.242-.184-.14-.153-.453-.092-1.08l.015-.163c.018-.179.026-.268 0-.35-.025-.083-.082-.15-.197-.284l-.104-.122c-.402-.47-.603-.706-.533-.932.07-.225.365-.292.956-.426l.152-.034c.168-.038.252-.057.32-.108.067-.051.11-.129.196-.284l.079-.141zm-19.2 0C2.02 6.273 2.173 6 2.4 6c.227 0 .38.273.683.818l.079.141c.086.155.13.233.197.284.067.05.151.07.319.108l.153.034c.59.134.885.2.955.426.07.226-.13.462-.533.932l-.104.122c-.115.134-.172.2-.198.283-.025.083-.017.172 0 .35l.016.163c.061.628.092.942-.092 1.082-.184.139-.46.012-1.013-.243l-.143-.066c-.157-.072-.236-.108-.319-.108-.083 0-.162.036-.319.108l-.143.066c-.553.255-.829.382-1.013.242-.184-.14-.153-.453-.092-1.08l.015-.163c.018-.179.026-.268 0-.35-.025-.083-.082-.15-.197-.284l-.104-.122c-.402-.47-.603-.706-.533-.932.07-.225.365-.292.955-.426l.153-.034c.168-.038.252-.057.32-.108.067-.051.11-.129.196-.284l.079-.141z" fill="#004293"/></svg>