<svg width="22" height="24" fill="none" xmlns="http://www.w3.org/2000/svg"><path d="M6.252 14.65c-.138.087-.28.176-.42.26.26 2.578 2.475 4.59 5.168 4.59 2.869 0 5.194-2.283 5.194-5.1v-.007c-.162.029-.33.055-.493.08l-.02.002c-.197.03-.392.06-.593.095-.856.152-1.548.09-2.148-.127-.558-.202-.98-.523-1.29-.76l-.029-.021c-.336-.257-.556-.417-.829-.515-.248-.09-.602-.149-1.189-.045-.86.152-1.63.512-2.34.924-.304.176-.586.355-.865.531l-.146.093z" fill="#004293"/><path fill-rule="evenodd" clip-rule="evenodd" d="M0 9.6c0-4.525 0-6.788 1.432-8.194C2.864 0 5.168 0 9.778 0h2.444c4.61 0 6.914 0 8.346 1.406C22 2.812 22 5.075 22 9.6v4.8c0 4.525 0 6.788-1.432 8.194C19.136 24 16.831 24 12.222 24H9.778c-4.61 0-6.914 0-8.346-1.406C0 21.188 0 18.925 0 14.4V9.6zm18.028 4.8a6.85 6.85 0 00-.044-.778l.024-.017-.111-.537C17.265 9.895 14.417 7.5 11 7.5c-3.881 0-7.028 3.09-7.028 6.9 0 3.81 3.147 6.9 7.028 6.9s7.028-3.09 7.028-6.9zM6.11 3.9a.908.908 0 00-.917.9c0 .497.41.9.917.9h9.778a.909.909 0 00.917-.9c0-.497-.41-.9-.917-.9H6.11z" fill="#004293"/></svg>