<svg width="64" height="64" fill="none" xmlns="http://www.w3.org/2000/svg"><g filter="url(#filter0_d_84_1674)"><rect x="4" y="2" width="56" height="56" rx="28" fill="#fff" shape-rendering="crispEdges"/><path d="M29.558 21.682l.808 1.448c.728 1.306.436 3.019-.712 4.167 0 0-1.392 1.392 1.132 3.917 2.524 2.524 3.916 1.133 3.917 1.132 1.148-1.148 2.861-1.44 4.167-.712l1.448.808c1.972 1.1 2.205 3.866.471 5.6-1.041 1.041-2.317 1.852-3.728 1.905-2.374.09-6.407-.51-10.452-4.556-4.046-4.045-4.646-8.077-4.556-10.452.053-1.41.863-2.687 1.905-3.728 1.734-1.734 4.5-1.5 5.6.471z" fill="#004293"/><path d="M33.568 17.406a.935.935 0 011.072-.771c.031.006.133.025.186.037.106.023.254.06.439.113.369.108.885.285 1.504.569 1.24.569 2.89 1.563 4.602 3.275 1.712 1.712 2.706 3.362 3.275 4.602.284.619.46 1.135.569 1.504a7.14 7.14 0 01.14.567l.007.038c.082.51-.26 1.01-.769 1.092a.933.933 0 01-1.07-.767 5.223 5.223 0 00-.101-.407 9.213 9.213 0 00-.473-1.25c-.485-1.057-1.357-2.519-2.898-4.06-1.54-1.54-3.002-2.412-4.06-2.897-.53-.243-.96-.39-1.248-.473a7.12 7.12 0 00-.396-.1.944.944 0 01-.78-1.072z" fill="#fff"/><path fill-rule="evenodd" clip-rule="evenodd" d="M33.849 21.699a.933.933 0 011.154-.641l-.257.897.257-.897h.002l.002.001.004.001.01.003.024.008.07.024c.056.02.13.048.22.086.182.078.43.198.734.378.609.36 1.44.96 2.417 1.936.977.977 1.576 1.809 1.936 2.418.18.304.3.552.378.733a3.711 3.711 0 01.11.29l.008.025.003.01.002.004v.002s0 .002-.897.258l.898-.256a.933.933 0 01-1.792.525l-.004-.013a1.818 1.818 0 00-.044-.11 4.56 4.56 0 00-.268-.517c-.278-.47-.779-1.178-1.65-2.049-.87-.87-1.58-1.372-2.048-1.65a4.56 4.56 0 00-.518-.268 1.818 1.818 0 00-.11-.043l-.013-.005a.933.933 0 01-.628-1.15z" fill="#fff"/></g><defs><filter id="filter0_d_84_1674" x="0" y="0" width="64" height="64" filterUnits="userSpaceOnUse" color-interpolation-filters="sRGB"><feFlood flood-opacity="0" result="BackgroundImageFix"/><feColorMatrix in="SourceAlpha" values="0 0 0 0 0 0 0 0 0 0 0 0 0 0 0 0 0 0 127 0" result="hardAlpha"/><feOffset dy="2"/><feGaussianBlur stdDeviation="2"/><feComposite in2="hardAlpha" operator="out"/><feColorMatrix values="0 0 0 0 0 0 0 0 0 0 0 0 0 0 0 0 0 0 0.1 0"/><feBlend in2="BackgroundImageFix" result="effect1_dropShadow_84_1674"/><feBlend in="SourceGraphic" in2="effect1_dropShadow_84_1674" result="shape"/></filter></defs></svg>