<svg width="24" height="24" fill="none" xmlns="http://www.w3.org/2000/svg"><path d="M10.43 6.653l.52.93c.468.84.28 1.941-.458 2.68 0 0-.895.895.728 2.518 1.622 1.622 2.517.728 2.518.727.738-.738 1.84-.926 2.679-.457l.93.519c1.268.708 1.418 2.485.303 3.6-.67.67-1.49 1.19-2.396 1.225-1.527.058-4.12-.329-6.72-2.93-2.6-2.6-2.987-5.192-2.929-6.718.035-.907.556-1.728 1.225-2.397 1.115-1.114 2.893-.965 3.6.303z" fill="#004293"/><path d="M13.008 3.904a.6.6 0 01.689-.496l.12.024c.068.015.163.038.282.073.237.069.569.183.967.365.797.366 1.857 1.005 2.958 2.106 1.1 1.1 1.74 2.16 2.105 2.958.183.398.297.73.366.967a4.548 4.548 0 01.09.364l.005.025a.612.612 0 01-.494.702.6.6 0 01-.688-.493 2.409 2.409 0 00-.065-.262 5.932 5.932 0 00-.304-.803c-.312-.68-.873-1.62-1.863-2.61-.99-.99-1.93-1.55-2.61-1.863a5.918 5.918 0 00-.803-.304 4.64 4.64 0 00-.254-.064.607.607 0 01-.501-.689z" fill="#1C274C"/><path fill-rule="evenodd" clip-rule="evenodd" d="M13.189 6.664a.6.6 0 01.741-.412l-.165.576.165-.577h.002v.001l.003.001.007.002.015.005a1.533 1.533 0 01.187.07c.117.05.276.128.472.244.391.231.926.616 1.554 1.244s1.013 1.163 1.244 1.554c.116.196.193.355.243.472a2.4 2.4 0 01.071.187l.005.015.002.007v.002l.001.002-.576.165.576-.164a.6.6 0 01-1.15.337l-.004-.008a2.93 2.93 0 00-.2-.403c-.179-.302-.5-.757-1.06-1.317-.56-.56-1.016-.882-1.318-1.06a2.943 2.943 0 00-.403-.201l-.008-.003a.6.6 0 01-.404-.74z" fill="#1C274C"/></svg>