<svg width="31" height="31" fill="none" xmlns="http://www.w3.org/2000/svg"><path d="M1.755.837a1.2 1.2 0 10-.76 2.276l.425.142c1.082.36 1.797.6 2.324.846.5.232.715.42.854.611.138.192.247.456.31 1.003.065.577.067 1.332.067 2.473v4.275c0 2.188 0 3.952.187 5.339.193 1.44.607 2.653 1.57 3.616.964.963 2.176 1.377 3.616 1.57 1.387.187 3.151.187 5.34.187h11.287a1.2 1.2 0 100-2.4h-11.2c-2.296 0-3.898-.003-5.107-.165-1.174-.158-1.796-.447-2.238-.89-.377-.376-.642-.881-.81-1.745h16.19c1.535 0 2.303 0 2.904-.396.601-.397.904-1.102 1.508-2.513l.686-1.6c1.295-3.022 1.943-4.533 1.231-5.612-.711-1.079-2.355-1.079-5.643-1.079H7.367c-.01-.492-.03-.936-.075-1.333-.089-.775-.282-1.487-.747-2.133-.466-.647-1.08-1.055-1.788-1.384-.666-.31-1.513-.592-2.515-.926L1.755.837zm8.42 25.138a2.4 2.4 0 110 4.8 2.4 2.4 0 010-4.8zm14.4 0a2.4 2.4 0 110 4.8 2.4 2.4 0 010-4.8z" fill="#fff"/></svg>