<svg width="23" height="24" fill="none" xmlns="http://www.w3.org/2000/svg"><path fill-rule="evenodd" clip-rule="evenodd" d="M11.5 1.735A2.59 2.59 0 009.06 3.47a.861.861 0 01-1.1.529.869.869 0 01-.527-1.107A4.316 4.316 0 0111.5 0a4.316 4.316 0 014.067 2.892.869.869 0 01-.526 1.107.861.861 0 01-1.1-.53 2.59 2.59 0 00-2.44-1.734z" fill="#004293"/><path d="M13.8 13.012H9.2a.577.577 0 00-.575.579v2.5a.58.58 0 00.361.537l.806.323a4.576 4.576 0 003.416 0l.806-.323a.578.578 0 00.361-.538v-2.5a.577.577 0 00-.575-.578z" fill="#004293"/><path d="M6.912 16.33l-5.755-1.736c.034 3.602.244 6.92 1.509 8.05C4.18 24 6.62 24 11.5 24s7.318 0 8.834-1.355c1.265-1.131 1.474-4.449 1.509-8.05l-5.755 1.736a2.312 2.312 0 01-1.434 1.907l-.805.324a6.29 6.29 0 01-4.698 0l-.805-.324a2.312 2.312 0 01-1.434-1.907zM6.45 4.337h10.1c2.817 0 4.226 0 5.177.779.183.15.35.317.5.501.773.957.773 2.374.773 5.208 0 .719 0 1.079-.173 1.359a1.167 1.167 0 01-.115.155c-.217.247-.56.35-1.244.557l-5.368 1.62v-.925a2.307 2.307 0 00-2.3-2.314H9.2c-1.27 0-2.3 1.036-2.3 2.314v.925l-5.368-1.62c-.685-.207-1.027-.31-1.244-.557-.043-.049-.08-.1-.115-.155C0 11.904 0 11.544 0 10.824c0-2.833 0-4.25.774-5.207a3.46 3.46 0 01.499-.501c.95-.779 2.36-.779 5.177-.779z" fill="#004293"/></svg>