<svg width="32" height="32" viewBox="0 0 32 32" fill="none" xmlns="http://www.w3.org/2000/svg">
<path d="M4.93957 5.06066C5.52535 4.47487 6.4751 4.47487 7.06089 5.06066L27.567 25.5668C28.1528 26.1525 28.1528 27.1023 27.567 27.6881C26.9812 28.2739 26.0314 28.2739 25.4457 27.6881L4.93957 7.18198C4.35378 6.59619 4.35378 5.64645 4.93957 5.06066Z" fill="#004293"/>
<path d="M27.567 5.06066C26.9812 4.47488 26.0315 4.47488 25.4457 5.06066L4.93957 25.5668C4.35378 26.1525 4.35378 27.1023 4.93957 27.6881C5.52535 28.2739 6.4751 28.2739 7.06089 27.6881L27.567 7.18198C28.1528 6.5962 28.1528 5.64645 27.567 5.06066Z" fill="#004293"/>
</svg>
