<svg width="48" height="48" viewBox="0 0 48 48" fill="none" xmlns="http://www.w3.org/2000/svg">
<g filter="url(#filter0_d_207_1844)">
<rect x="4" y="2" width="40" height="40" rx="20" fill="white" shape-rendering="crispEdges"/>
<path d="M22.2564 16.0588L22.8333 17.0926C23.3539 18.0254 23.1449 19.2492 22.3249 20.0692C22.3249 20.0692 22.3249 20.0692 22.3249 20.0692C22.3248 20.0693 21.3304 21.0639 23.1337 22.8671C24.9362 24.6697 25.9308 23.6767 25.9316 23.6758C25.9316 23.6758 25.9316 23.6758 25.9316 23.6758C26.7516 22.8559 27.9754 22.6469 28.9082 23.1675L29.9419 23.7444C31.3506 24.5305 31.517 26.506 30.2788 27.7442C29.5348 28.4882 28.6233 29.0671 27.6158 29.1053C25.9197 29.1696 23.0392 28.7404 20.1498 25.851C17.2604 22.9616 16.8312 20.0811 16.8955 18.385C16.9337 17.3774 17.5126 16.466 18.2566 15.722C19.4948 14.4838 21.4702 14.6502 22.2564 16.0588Z" fill="#004293"/>
<path d="M25.1198 13.0047C25.1786 12.6412 25.5222 12.3947 25.8857 12.4535C25.9081 12.4578 25.9805 12.4713 26.0185 12.4798C26.0943 12.4967 26.2001 12.5227 26.332 12.5611C26.5958 12.6379 26.9644 12.7645 27.4067 12.9673C28.2923 13.3733 29.4708 14.0835 30.6937 15.3065C31.9166 16.5294 32.6269 17.7079 33.0329 18.5935C33.2357 19.0358 33.3622 19.4044 33.4391 19.6682C33.4775 19.8001 33.5035 19.9059 33.5204 19.9817C33.5288 20.0197 33.535 20.0501 33.5393 20.0726L33.5444 20.1003C33.6033 20.4638 33.359 20.8216 32.9955 20.8804C32.6331 20.9391 32.2917 20.6937 32.2314 20.332C32.2295 20.3223 32.2244 20.2962 32.219 20.2716C32.208 20.2223 32.189 20.1443 32.1589 20.041C32.0988 19.8345 31.9943 19.5275 31.8208 19.1492C31.4743 18.3933 30.8512 17.3496 29.7509 16.2493C28.6506 15.149 27.6069 14.5259 26.851 14.1793C26.4726 14.0059 26.1657 13.9014 25.9592 13.8412C25.8559 13.8112 25.7261 13.7814 25.6769 13.7704C25.3152 13.7101 25.0611 13.3671 25.1198 13.0047Z" fill="white"/>
<path fill-rule="evenodd" clip-rule="evenodd" d="M25.3209 16.0709C25.422 15.7168 25.791 15.5118 26.145 15.613L25.9619 16.254C26.145 15.613 26.145 15.613 26.145 15.613L26.1463 15.6134L26.1477 15.6138L26.1506 15.6146L26.1575 15.6167L26.1751 15.6222C26.1885 15.6264 26.2053 15.632 26.2252 15.6391C26.2651 15.6533 26.3179 15.6734 26.3826 15.7012C26.5121 15.7567 26.6891 15.8424 26.9064 15.971C27.3415 16.2285 27.9354 16.6562 28.6332 17.354C29.3309 18.0517 29.7586 18.6457 30.0161 19.0807C30.1448 19.2981 30.2305 19.475 30.286 19.6045C30.3137 19.6692 30.3339 19.722 30.348 19.7619C30.3551 19.7819 30.3607 19.7986 30.365 19.812L30.3705 19.8296L30.3725 19.8365L30.3734 19.8395L30.3738 19.8408C30.3738 19.8408 30.3741 19.8421 29.7331 20.0252L30.3741 19.8421C30.4753 20.1961 30.2703 20.5651 29.9163 20.6663C29.5653 20.7666 29.1995 20.5659 29.0947 20.2174L29.0915 20.2078C29.0867 20.1944 29.0769 20.1681 29.0605 20.1297C29.0276 20.053 28.9679 19.9275 28.8687 19.7598C28.6705 19.4249 28.3126 18.9189 27.6904 18.2968C27.0682 17.6746 26.5622 17.3166 26.2273 17.1184C26.0597 17.0192 25.9341 16.9596 25.8574 16.9267C25.819 16.9102 25.7927 16.9004 25.7793 16.8957L25.7698 16.8924C25.4213 16.7876 25.2206 16.4219 25.3209 16.0709Z" fill="white"/>
</g>
<defs>
<filter id="filter0_d_207_1844" x="0" y="0" width="48" height="48" filterUnits="userSpaceOnUse" color-interpolation-filters="sRGB">
<feFlood flood-opacity="0" result="BackgroundImageFix"/>
<feColorMatrix in="SourceAlpha" type="matrix" values="0 0 0 0 0 0 0 0 0 0 0 0 0 0 0 0 0 0 127 0" result="hardAlpha"/>
<feOffset dy="2"/>
<feGaussianBlur stdDeviation="2"/>
<feComposite in2="hardAlpha" operator="out"/>
<feColorMatrix type="matrix" values="0 0 0 0 0 0 0 0 0 0 0 0 0 0 0 0 0 0 0.1 0"/>
<feBlend mode="normal" in2="BackgroundImageFix" result="effect1_dropShadow_207_1844"/>
<feBlend mode="normal" in="SourceGraphic" in2="effect1_dropShadow_207_1844" result="shape"/>
</filter>
</defs>
</svg>
