<svg width="32" height="32" viewBox="0 0 32 32" fill="none" xmlns="http://www.w3.org/2000/svg">
<path fill-rule="evenodd" clip-rule="evenodd" d="M32 16C32 24.8366 24.8366 32 16 32C13.4405 32 11.0214 31.399 8.87605 30.3305C8.30593 30.0465 7.65429 29.952 7.03902 30.1166L3.47736 31.0696C1.93122 31.4833 0.516727 30.0688 0.930417 28.5226L1.88339 24.961C2.04802 24.3457 1.9535 23.6941 1.66954 23.124C0.600986 20.9786 0 18.5595 0 16C0 7.16344 7.16344 0 16 0C24.8366 0 32 7.16344 32 16ZM8.8 14.5735C8.8 16.7629 10.9101 19.0601 12.8457 20.7068C14.1639 21.8282 14.823 22.3889 16 22.3889C17.177 22.3889 17.8361 21.8282 19.1543 20.7068C21.0899 19.0602 23.2 16.7629 23.2 14.5734C23.2 10.29 19.2399 8.69075 16 11.9997C12.7601 8.69075 8.8 10.29 8.8 14.5735Z" fill="#004293"/>
</svg>
