<svg width="26" height="32" viewBox="0 0 26 32" fill="none" xmlns="http://www.w3.org/2000/svg">
<path d="M13.0002 14C10.1283 14 7.80019 16.3281 7.80019 19.2C7.80019 22.0719 10.1283 24.4 13.0002 24.4C15.8721 24.4 18.2002 22.0719 18.2002 19.2C18.2002 16.3281 15.8721 14 13.0002 14Z" fill="#004293"/>
<path fill-rule="evenodd" clip-rule="evenodd" d="M0.200195 12.8C0.200195 6.76602 0.200195 3.74903 2.07471 1.87452C3.94923 0 6.96622 0 13.0002 0C19.0342 0 22.0512 0 23.9257 1.87452C25.8002 3.74903 25.8002 6.76602 25.8002 12.8V19.2C25.8002 25.234 25.8002 28.251 23.9257 30.1255C22.0512 32 19.0342 32 13.0002 32C6.96622 32 3.94923 32 2.07471 30.1255C0.200195 28.251 0.200195 25.234 0.200195 19.2V12.8ZM5.4002 19.2C5.4002 15.0026 8.80283 11.6 13.0002 11.6C17.1976 11.6 20.6002 15.0026 20.6002 19.2C20.6002 23.3974 17.1976 26.8 13.0002 26.8C8.80283 26.8 5.4002 23.3974 5.4002 19.2ZM9.80019 5.2C9.13745 5.2 8.60019 5.73726 8.60019 6.4C8.60019 7.06274 9.13745 7.6 9.80019 7.6H16.2002C16.8629 7.6 17.4002 7.06274 17.4002 6.4C17.4002 5.73726 16.8629 5.2 16.2002 5.2H9.80019Z" fill="#004293"/>
</svg>
