<svg width="31" height="31" viewBox="0 0 31 31" fill="none" xmlns="http://www.w3.org/2000/svg">
<path d="M1.7546 0.836564C1.12587 0.626986 0.446288 0.966778 0.23671 1.59551C0.027133 2.22424 0.366925 2.90383 0.995657 3.1134L1.41951 3.25469C2.50177 3.61544 3.21728 3.85586 3.7444 4.10108C4.24354 4.33328 4.45934 4.52015 4.59761 4.71199C4.73589 4.90383 4.84493 5.16765 4.90737 5.71461C4.97332 6.29222 4.97513 7.04705 4.97513 8.18784L4.97513 12.4628C4.9751 14.6509 4.97507 16.4146 5.16157 17.8018C5.35519 19.242 5.76942 20.4546 6.73249 21.4176C7.69556 22.3807 8.90815 22.7949 10.3483 22.9885C11.7355 23.175 13.4992 23.175 15.6873 23.175H26.9751C27.6379 23.175 28.1751 22.6377 28.1751 21.975C28.1751 21.3122 27.6379 20.775 26.9751 20.775H15.7751C13.4785 20.775 11.8767 20.7724 10.6681 20.6099C9.49408 20.4521 8.87237 20.1634 8.42955 19.7206C8.05325 19.3443 7.78823 18.8388 7.62024 17.975H23.8104C25.3454 17.975 26.113 17.975 26.7141 17.5786C27.3152 17.1822 27.6176 16.4767 28.2223 15.0658L28.908 13.4658C30.2032 10.4437 30.8508 8.93263 30.1394 7.85381C29.428 6.77498 27.7841 6.77498 24.4961 6.77498H7.36721C7.35778 6.28269 7.33711 5.83852 7.29188 5.44237C7.20332 4.66666 7.01035 3.95489 6.5446 3.30869C6.07884 2.66249 5.46461 2.25434 4.75672 1.92502C4.09074 1.61521 3.24382 1.33293 2.24163 0.998903L1.7546 0.836564Z" fill="white"/>
<path d="M10.1748 25.975C11.5003 25.975 12.5748 27.0496 12.5748 28.375C12.5748 29.7005 11.5003 30.775 10.1748 30.775C8.84932 30.775 7.7748 29.7005 7.7748 28.375C7.7748 27.0496 8.84932 25.975 10.1748 25.975Z" fill="white"/>
<path d="M24.5748 25.9752C25.9003 25.9752 26.9748 27.0497 26.9748 28.3752C26.9748 29.7006 25.9003 30.7752 24.5748 30.7752C23.2493 30.7752 22.1748 29.7006 22.1748 28.3752C22.1748 27.0497 23.2493 25.9752 24.5748 25.9752Z" fill="white"/>
</svg>
