<svg width="104" height="104" viewBox="0 0 104 104" fill="none" xmlns="http://www.w3.org/2000/svg">
<g filter="url(#filter0_d_84_1676)">
<rect x="16" y="12" width="72" height="72" rx="36" fill="#004293" shape-rendering="crispEdges"/>
<path d="M36.7546 32.8366C36.1259 32.627 35.4463 32.9668 35.2367 33.5955C35.0271 34.2242 35.3669 34.9038 35.9957 35.1134L36.4195 35.2547C37.5018 35.6154 38.2173 35.8559 38.7444 36.1011C39.2435 36.3333 39.4593 36.5202 39.5976 36.712C39.7359 36.9038 39.8449 37.1677 39.9074 37.7146C39.9733 38.2922 39.9751 39.047 39.9751 40.1878L39.9751 44.4628C39.9751 46.6509 39.9751 48.4146 40.1616 49.8018C40.3552 51.242 40.7694 52.4546 41.7325 53.4176C42.6956 54.3807 43.9082 54.7949 45.3483 54.9885C46.7355 55.175 48.4992 55.175 50.6873 55.175H61.9751C62.6379 55.175 63.1751 54.6377 63.1751 53.975C63.1751 53.3122 62.6379 52.775 61.9751 52.775H50.7751C48.4785 52.775 46.8767 52.7724 45.6681 52.6099C44.4941 52.4521 43.8724 52.1634 43.4295 51.7206C43.0532 51.3443 42.7882 50.8388 42.6202 49.975H58.8104C60.3454 49.975 61.113 49.975 61.7141 49.5786C62.3152 49.1822 62.6176 48.4767 63.2223 47.0658L63.908 45.4658C65.2032 42.4437 65.8508 40.9326 65.1394 39.8538C64.428 38.775 62.7841 38.775 59.4961 38.775H42.3672C42.3578 38.2827 42.3371 37.8385 42.2919 37.4424C42.2033 36.6667 42.0103 35.9549 41.5446 35.3087C41.0788 34.6625 40.4646 34.2543 39.7567 33.925C39.0907 33.6152 38.2438 33.3329 37.2416 32.9989L36.7546 32.8366Z" fill="white"/>
<path d="M45.1748 57.975C46.5003 57.975 47.5748 59.0496 47.5748 60.375C47.5748 61.7005 46.5003 62.775 45.1748 62.775C43.8493 62.775 42.7748 61.7005 42.7748 60.375C42.7748 59.0496 43.8493 57.975 45.1748 57.975Z" fill="white"/>
<path d="M59.5748 57.9752C60.9003 57.9752 61.9748 59.0497 61.9748 60.3752C61.9748 61.7006 60.9003 62.7752 59.5748 62.7752C58.2493 62.7752 57.1748 61.7006 57.1748 60.3752C57.1748 59.0497 58.2493 57.9752 59.5748 57.9752Z" fill="white"/>
<rect x="52" y="12" width="36" height="36" rx="18" fill="white" fill-opacity="0.9"/>
<path d="M66.84 27.312C66.84 29.5413 66.3067 31.2213 65.24 32.352C64.1733 33.472 62.616 34.032 60.568 34.032L60.536 33.168C61.24 33.168 61.8853 33.088 62.472 32.928C63.0587 32.768 63.5653 32.5227 63.992 32.192C64.4293 31.8507 64.7813 31.4187 65.048 30.896C65.3253 30.3627 65.512 29.7227 65.608 28.976C65.32 29.1253 64.9733 29.2587 64.568 29.376C64.1627 29.4827 63.7307 29.536 63.272 29.536C62.6747 29.536 62.168 29.4453 61.752 29.264C61.336 29.072 61 28.8213 60.744 28.512C60.488 28.2027 60.3013 27.8453 60.184 27.44C60.0667 27.0347 60.008 26.6133 60.008 26.176C60.008 25.7707 60.072 25.36 60.2 24.944C60.328 24.528 60.5253 24.1547 60.792 23.824C61.0693 23.4827 61.4107 23.2053 61.816 22.992C62.232 22.7787 62.7227 22.672 63.288 22.672C64.4507 22.672 65.3307 23.0827 65.928 23.904C66.536 24.7147 66.84 25.8507 66.84 27.312ZM63.368 28.624C63.8587 28.624 64.2853 28.5707 64.648 28.464C65.0213 28.3467 65.368 28.2133 65.688 28.064C65.6987 27.936 65.704 27.8133 65.704 27.696C65.7147 27.5787 65.72 27.4453 65.72 27.296C65.72 26.7947 65.6827 26.32 65.608 25.872C65.544 25.424 65.416 25.0293 65.224 24.688C65.0427 24.3467 64.7973 24.08 64.488 23.888C64.1787 23.6853 63.784 23.584 63.304 23.584C62.9093 23.584 62.5733 23.6587 62.296 23.808C62.0187 23.9467 61.7947 24.1333 61.624 24.368C61.4533 24.6027 61.3253 24.8747 61.24 25.184C61.1653 25.4933 61.128 25.8133 61.128 26.144C61.128 26.9867 61.3147 27.6107 61.688 28.016C62.072 28.4213 62.632 28.624 63.368 28.624ZM75.8713 27.312C75.8713 29.5413 75.3379 31.2213 74.2713 32.352C73.2046 33.472 71.6473 34.032 69.5993 34.032L69.5673 33.168C70.2713 33.168 70.9166 33.088 71.5033 32.928C72.0899 32.768 72.5966 32.5227 73.0233 32.192C73.4606 31.8507 73.8126 31.4187 74.0793 30.896C74.3566 30.3627 74.5433 29.7227 74.6393 28.976C74.3513 29.1253 74.0046 29.2587 73.5993 29.376C73.1939 29.4827 72.7619 29.536 72.3033 29.536C71.7059 29.536 71.1993 29.4453 70.7833 29.264C70.3673 29.072 70.0313 28.8213 69.7753 28.512C69.5193 28.2027 69.3326 27.8453 69.2153 27.44C69.0979 27.0347 69.0393 26.6133 69.0393 26.176C69.0393 25.7707 69.1033 25.36 69.2313 24.944C69.3593 24.528 69.5566 24.1547 69.8233 23.824C70.1006 23.4827 70.4419 23.2053 70.8473 22.992C71.2633 22.7787 71.7539 22.672 72.3193 22.672C73.4819 22.672 74.3619 23.0827 74.9593 23.904C75.5673 24.7147 75.8713 25.8507 75.8713 27.312ZM72.3993 28.624C72.8899 28.624 73.3166 28.5707 73.6793 28.464C74.0526 28.3467 74.3993 28.2133 74.7193 28.064C74.7299 27.936 74.7353 27.8133 74.7353 27.696C74.7459 27.5787 74.7513 27.4453 74.7513 27.296C74.7513 26.7947 74.7139 26.32 74.6393 25.872C74.5753 25.424 74.4473 25.0293 74.2553 24.688C74.0739 24.3467 73.8286 24.08 73.5193 23.888C73.2099 23.6853 72.8153 23.584 72.3353 23.584C71.9406 23.584 71.6046 23.6587 71.3273 23.808C71.0499 23.9467 70.8259 24.1333 70.6553 24.368C70.4846 24.6027 70.3566 24.8747 70.2713 25.184C70.1966 25.4933 70.1593 25.8133 70.1593 26.144C70.1593 26.9867 70.3459 27.6107 70.7193 28.016C71.1033 28.4213 71.6633 28.624 72.3993 28.624Z" fill="#004293"/>
</g>
<defs>
<filter id="filter0_d_84_1676" x="0" y="0" width="104" height="104" filterUnits="userSpaceOnUse" color-interpolation-filters="sRGB">
<feFlood flood-opacity="0" result="BackgroundImageFix"/>
<feColorMatrix in="SourceAlpha" type="matrix" values="0 0 0 0 0 0 0 0 0 0 0 0 0 0 0 0 0 0 127 0" result="hardAlpha"/>
<feOffset dy="4"/>
<feGaussianBlur stdDeviation="8"/>
<feComposite in2="hardAlpha" operator="out"/>
<feColorMatrix type="matrix" values="0 0 0 0 0 0 0 0 0 0 0 0 0 0 0 0 0 0 0.15 0"/>
<feBlend mode="normal" in2="BackgroundImageFix" result="effect1_dropShadow_84_1676"/>
<feBlend mode="normal" in="SourceGraphic" in2="effect1_dropShadow_84_1676" result="shape"/>
</filter>
</defs>
</svg>
